<mxfile host="app.diagrams.net" agent="Mozilla/5.0 (Windows NT 10.0; Win64; x64) AppleWebKit/537.36 (KHTML, like Gecko) Chrome/135.0.0.0 Safari/537.36" version="26.2.13">
  <diagram name="PÃ¡gina-1" id="I8beG7DLc7keUHuK3WOg">
    <mxGraphModel dx="1139" dy="1181" grid="0" gridSize="10" guides="1" tooltips="1" connect="1" arrows="1" fold="1" page="0" pageScale="1" pageWidth="827" pageHeight="1169" math="0" shadow="0">
      <root>
        <mxCell id="0" />
        <mxCell id="1" parent="0" />
        <mxCell id="ag3H703gYOMIYS7V91si-2" value="Cliente&amp;nbsp;" style="swimlane;fontStyle=1;align=center;verticalAlign=top;childLayout=stackLayout;horizontal=1;startSize=26;horizontalStack=0;resizeParent=1;resizeParentMax=0;resizeLast=0;collapsible=1;marginBottom=0;whiteSpace=wrap;html=1;" parent="1" vertex="1">
          <mxGeometry x="-379" y="-159" width="242" height="175" as="geometry">
            <mxRectangle x="-102" y="-28" width="95" height="26" as="alternateBounds" />
          </mxGeometry>
        </mxCell>
        <mxCell id="ag3H703gYOMIYS7V91si-3" value="&lt;div&gt;idCliente:&amp;nbsp;&lt;/div&gt;&lt;div&gt;idCadastro:&lt;/div&gt;idPedido:&lt;div&gt;idpagamento:&lt;/div&gt;&lt;div&gt;idStatus:&lt;/div&gt;&lt;div&gt;&lt;br&gt;&lt;div&gt;&lt;br&gt;&lt;/div&gt;&lt;div&gt;&lt;br&gt;&lt;/div&gt;&lt;/div&gt;" style="text;strokeColor=none;fillColor=none;align=left;verticalAlign=top;spacingLeft=4;spacingRight=4;overflow=hidden;rotatable=0;points=[[0,0.5],[1,0.5]];portConstraint=eastwest;whiteSpace=wrap;html=1;" parent="ag3H703gYOMIYS7V91si-2" vertex="1">
          <mxGeometry y="26" width="242" height="81" as="geometry" />
        </mxCell>
        <mxCell id="ag3H703gYOMIYS7V91si-4" value="" style="line;strokeWidth=1;fillColor=none;align=left;verticalAlign=middle;spacingTop=-1;spacingLeft=3;spacingRight=3;rotatable=0;labelPosition=right;points=[];portConstraint=eastwest;strokeColor=inherit;" parent="ag3H703gYOMIYS7V91si-2" vertex="1">
          <mxGeometry y="107" width="242" height="8" as="geometry" />
        </mxCell>
        <mxCell id="ag3H703gYOMIYS7V91si-5" value="CriarCliente():&lt;div&gt;Alterar&lt;span style=&quot;background-color: transparent; color: light-dark(rgb(0, 0, 0), rgb(255, 255, 255));&quot;&gt;Cliente()&lt;/span&gt;&lt;span style=&quot;background-color: transparent; color: light-dark(rgb(0, 0, 0), rgb(255, 255, 255));&quot;&gt;:&lt;/span&gt;&lt;/div&gt;&lt;div&gt;Excluir&lt;span style=&quot;background-color: transparent; color: light-dark(rgb(0, 0, 0), rgb(255, 255, 255));&quot;&gt;Cliente()&lt;/span&gt;&lt;span style=&quot;background-color: transparent; color: light-dark(rgb(0, 0, 0), rgb(255, 255, 255));&quot;&gt;:&lt;/span&gt;&lt;/div&gt;" style="text;strokeColor=none;fillColor=none;align=left;verticalAlign=top;spacingLeft=4;spacingRight=4;overflow=hidden;rotatable=0;points=[[0,0.5],[1,0.5]];portConstraint=eastwest;whiteSpace=wrap;html=1;" parent="ag3H703gYOMIYS7V91si-2" vertex="1">
          <mxGeometry y="115" width="242" height="60" as="geometry" />
        </mxCell>
        <mxCell id="ag3H703gYOMIYS7V91si-6" value="Funcionario" style="swimlane;fontStyle=1;align=center;verticalAlign=top;childLayout=stackLayout;horizontal=1;startSize=26;horizontalStack=0;resizeParent=1;resizeParentMax=0;resizeLast=0;collapsible=1;marginBottom=0;whiteSpace=wrap;html=1;" parent="1" vertex="1">
          <mxGeometry x="-379" y="248" width="151" height="184" as="geometry" />
        </mxCell>
        <mxCell id="ag3H703gYOMIYS7V91si-7" value="&lt;div&gt;idFuncionario:&lt;/div&gt;&lt;div&gt;idPedido:&lt;/div&gt;&lt;div&gt;idPagamento&lt;/div&gt;&lt;div&gt;idNovosItens :&lt;/div&gt;idHistoricoPedido:&lt;div&gt;&lt;span style=&quot;background-color: transparent; color: light-dark(rgb(0, 0, 0), rgb(255, 255, 255));&quot;&gt;statusPedido:&lt;/span&gt;&lt;/div&gt;&lt;div&gt;&lt;br&gt;&lt;/div&gt;" style="text;strokeColor=none;fillColor=none;align=left;verticalAlign=top;spacingLeft=4;spacingRight=4;overflow=hidden;rotatable=0;points=[[0,0.5],[1,0.5]];portConstraint=eastwest;whiteSpace=wrap;html=1;" parent="ag3H703gYOMIYS7V91si-6" vertex="1">
          <mxGeometry y="26" width="151" height="96" as="geometry" />
        </mxCell>
        <mxCell id="ag3H703gYOMIYS7V91si-8" value="" style="line;strokeWidth=1;fillColor=none;align=left;verticalAlign=middle;spacingTop=-1;spacingLeft=3;spacingRight=3;rotatable=0;labelPosition=right;points=[];portConstraint=eastwest;strokeColor=inherit;" parent="ag3H703gYOMIYS7V91si-6" vertex="1">
          <mxGeometry y="122" width="151" height="8" as="geometry" />
        </mxCell>
        <mxCell id="ag3H703gYOMIYS7V91si-9" value="CriarFunciorario():&lt;div&gt;Alterar&lt;span style=&quot;background-color: transparent; color: light-dark(rgb(0, 0, 0), rgb(255, 255, 255));&quot;&gt;Funciorario&lt;/span&gt;&lt;span style=&quot;background-color: transparent; color: light-dark(rgb(0, 0, 0), rgb(255, 255, 255));&quot;&gt;():&lt;/span&gt;&lt;/div&gt;&lt;div&gt;Excluir&lt;span style=&quot;background-color: transparent; color: light-dark(rgb(0, 0, 0), rgb(255, 255, 255));&quot;&gt;Funciorario&lt;/span&gt;&lt;span style=&quot;background-color: transparent; color: light-dark(rgb(0, 0, 0), rgb(255, 255, 255));&quot;&gt;():&lt;/span&gt;&lt;/div&gt;" style="text;strokeColor=none;fillColor=none;align=left;verticalAlign=top;spacingLeft=4;spacingRight=4;overflow=hidden;rotatable=0;points=[[0,0.5],[1,0.5]];portConstraint=eastwest;whiteSpace=wrap;html=1;" parent="ag3H703gYOMIYS7V91si-6" vertex="1">
          <mxGeometry y="130" width="151" height="54" as="geometry" />
        </mxCell>
        <mxCell id="ag3H703gYOMIYS7V91si-10" value="Proprietario&lt;div&gt;&lt;br&gt;&lt;/div&gt;" style="swimlane;fontStyle=1;align=center;verticalAlign=top;childLayout=stackLayout;horizontal=1;startSize=26;horizontalStack=0;resizeParent=1;resizeParentMax=0;resizeLast=0;collapsible=1;marginBottom=0;whiteSpace=wrap;html=1;" parent="1" vertex="1">
          <mxGeometry x="-379" y="598" width="265" height="192" as="geometry" />
        </mxCell>
        <mxCell id="ag3H703gYOMIYS7V91si-11" value="&lt;div&gt;idProprietario:&lt;/div&gt;&lt;div&gt;&lt;br&gt;&lt;/div&gt;&lt;div&gt;&lt;br&gt;&lt;/div&gt;banco de dados:&lt;div&gt;(insumos) material:&lt;/div&gt;&lt;div&gt;(materiais em excesso)aproveitamento:&lt;/div&gt;&lt;div&gt;(melhora em todos os processos)eficiancia:&amp;nbsp;&amp;nbsp;&lt;br&gt;&lt;div&gt;&lt;br&gt;&lt;div&gt;&lt;br&gt;&lt;/div&gt;&lt;/div&gt;&lt;/div&gt;" style="text;strokeColor=none;fillColor=none;align=left;verticalAlign=top;spacingLeft=4;spacingRight=4;overflow=hidden;rotatable=0;points=[[0,0.5],[1,0.5]];portConstraint=eastwest;whiteSpace=wrap;html=1;" parent="ag3H703gYOMIYS7V91si-10" vertex="1">
          <mxGeometry y="26" width="265" height="101" as="geometry" />
        </mxCell>
        <mxCell id="ag3H703gYOMIYS7V91si-12" value="" style="line;strokeWidth=1;fillColor=none;align=left;verticalAlign=middle;spacingTop=-1;spacingLeft=3;spacingRight=3;rotatable=0;labelPosition=right;points=[];portConstraint=eastwest;strokeColor=inherit;" parent="ag3H703gYOMIYS7V91si-10" vertex="1">
          <mxGeometry y="127" width="265" height="8" as="geometry" />
        </mxCell>
        <mxCell id="ag3H703gYOMIYS7V91si-13" value="CriarProprietario():&lt;div&gt;Alterar&lt;span style=&quot;background-color: transparent; color: light-dark(rgb(0, 0, 0), rgb(255, 255, 255));&quot;&gt;Proprietario&lt;/span&gt;&lt;span style=&quot;background-color: transparent; color: light-dark(rgb(0, 0, 0), rgb(255, 255, 255));&quot;&gt;():&lt;/span&gt;&lt;/div&gt;&lt;div&gt;Excluir&lt;span style=&quot;background-color: transparent; color: light-dark(rgb(0, 0, 0), rgb(255, 255, 255));&quot;&gt;Proprietario&lt;/span&gt;&lt;span style=&quot;background-color: transparent; color: light-dark(rgb(0, 0, 0), rgb(255, 255, 255));&quot;&gt;():&lt;/span&gt;&lt;/div&gt;" style="text;strokeColor=none;fillColor=none;align=left;verticalAlign=top;spacingLeft=4;spacingRight=4;overflow=hidden;rotatable=0;points=[[0,0.5],[1,0.5]];portConstraint=eastwest;whiteSpace=wrap;html=1;" parent="ag3H703gYOMIYS7V91si-10" vertex="1">
          <mxGeometry y="135" width="265" height="57" as="geometry" />
        </mxCell>
        <mxCell id="ag3H703gYOMIYS7V91si-14" value="Pedido" style="swimlane;fontStyle=1;align=center;verticalAlign=top;childLayout=stackLayout;horizontal=1;startSize=26;horizontalStack=0;resizeParent=1;resizeParentMax=0;resizeLast=0;collapsible=1;marginBottom=0;whiteSpace=wrap;html=1;" parent="1" vertex="1">
          <mxGeometry x="181" y="-159" width="175" height="183" as="geometry" />
        </mxCell>
        <mxCell id="ag3H703gYOMIYS7V91si-15" value="idPedido:&lt;div&gt;idCliente&lt;br&gt;&lt;div&gt;idPagemento:&lt;/div&gt;&lt;div&gt;idItens:&lt;/div&gt;&lt;div&gt;idHistoricoPedido:&lt;br&gt;&lt;div&gt;&lt;br&gt;&lt;/div&gt;&lt;/div&gt;&lt;/div&gt;" style="text;strokeColor=none;fillColor=none;align=left;verticalAlign=top;spacingLeft=4;spacingRight=4;overflow=hidden;rotatable=0;points=[[0,0.5],[1,0.5]];portConstraint=eastwest;whiteSpace=wrap;html=1;" parent="ag3H703gYOMIYS7V91si-14" vertex="1">
          <mxGeometry y="26" width="175" height="94" as="geometry" />
        </mxCell>
        <mxCell id="ag3H703gYOMIYS7V91si-16" value="" style="line;strokeWidth=1;fillColor=none;align=left;verticalAlign=middle;spacingTop=-1;spacingLeft=3;spacingRight=3;rotatable=0;labelPosition=right;points=[];portConstraint=eastwest;strokeColor=inherit;" parent="ag3H703gYOMIYS7V91si-14" vertex="1">
          <mxGeometry y="120" width="175" height="8" as="geometry" />
        </mxCell>
        <mxCell id="ag3H703gYOMIYS7V91si-17" value="CriarPedido():&lt;div&gt;Alterar&lt;span style=&quot;background-color: transparent; color: light-dark(rgb(0, 0, 0), rgb(255, 255, 255));&quot;&gt;Pedido&lt;/span&gt;&lt;span style=&quot;background-color: transparent; color: light-dark(rgb(0, 0, 0), rgb(255, 255, 255));&quot;&gt;():&lt;/span&gt;&lt;/div&gt;&lt;div&gt;Excluir&lt;span style=&quot;background-color: transparent; color: light-dark(rgb(0, 0, 0), rgb(255, 255, 255));&quot;&gt;Pedido&lt;/span&gt;&lt;span style=&quot;background-color: transparent; color: light-dark(rgb(0, 0, 0), rgb(255, 255, 255));&quot;&gt;():&lt;/span&gt;&lt;/div&gt;" style="text;strokeColor=none;fillColor=none;align=left;verticalAlign=top;spacingLeft=4;spacingRight=4;overflow=hidden;rotatable=0;points=[[0,0.5],[1,0.5]];portConstraint=eastwest;whiteSpace=wrap;html=1;" parent="ag3H703gYOMIYS7V91si-14" vertex="1">
          <mxGeometry y="128" width="175" height="55" as="geometry" />
        </mxCell>
        <mxCell id="ag3H703gYOMIYS7V91si-18" value="Itens&lt;div&gt;&lt;br&gt;&lt;/div&gt;" style="swimlane;fontStyle=1;align=center;verticalAlign=top;childLayout=stackLayout;horizontal=1;startSize=26;horizontalStack=0;resizeParent=1;resizeParentMax=0;resizeLast=0;collapsible=1;marginBottom=0;whiteSpace=wrap;html=1;" parent="1" vertex="1">
          <mxGeometry x="-68" y="250" width="160" height="130" as="geometry" />
        </mxCell>
        <mxCell id="ag3H703gYOMIYS7V91si-19" value="idItens:&lt;div&gt;idNovosItens&lt;br&gt;&lt;div&gt;&lt;br&gt;&lt;/div&gt;&lt;/div&gt;" style="text;strokeColor=none;fillColor=none;align=left;verticalAlign=top;spacingLeft=4;spacingRight=4;overflow=hidden;rotatable=0;points=[[0,0.5],[1,0.5]];portConstraint=eastwest;whiteSpace=wrap;html=1;" parent="ag3H703gYOMIYS7V91si-18" vertex="1">
          <mxGeometry y="26" width="160" height="40" as="geometry" />
        </mxCell>
        <mxCell id="ag3H703gYOMIYS7V91si-20" value="" style="line;strokeWidth=1;fillColor=none;align=left;verticalAlign=middle;spacingTop=-1;spacingLeft=3;spacingRight=3;rotatable=0;labelPosition=right;points=[];portConstraint=eastwest;strokeColor=inherit;" parent="ag3H703gYOMIYS7V91si-18" vertex="1">
          <mxGeometry y="66" width="160" height="8" as="geometry" />
        </mxCell>
        <mxCell id="ag3H703gYOMIYS7V91si-21" value="CriarItens():&lt;div&gt;Alterar&lt;span style=&quot;background-color: transparent; color: light-dark(rgb(0, 0, 0), rgb(255, 255, 255));&quot;&gt;Itens&lt;/span&gt;&lt;span style=&quot;background-color: transparent; color: light-dark(rgb(0, 0, 0), rgb(255, 255, 255));&quot;&gt;():&lt;/span&gt;&lt;/div&gt;&lt;div&gt;Excluir&lt;span style=&quot;background-color: transparent; color: light-dark(rgb(0, 0, 0), rgb(255, 255, 255));&quot;&gt;Itens&lt;/span&gt;&lt;span style=&quot;background-color: transparent; color: light-dark(rgb(0, 0, 0), rgb(255, 255, 255));&quot;&gt;():&lt;/span&gt;&lt;/div&gt;" style="text;strokeColor=none;fillColor=none;align=left;verticalAlign=top;spacingLeft=4;spacingRight=4;overflow=hidden;rotatable=0;points=[[0,0.5],[1,0.5]];portConstraint=eastwest;whiteSpace=wrap;html=1;" parent="ag3H703gYOMIYS7V91si-18" vertex="1">
          <mxGeometry y="74" width="160" height="56" as="geometry" />
        </mxCell>
        <mxCell id="ag3H703gYOMIYS7V91si-22" value="Pagamento" style="swimlane;fontStyle=1;align=center;verticalAlign=top;childLayout=stackLayout;horizontal=1;startSize=26;horizontalStack=0;resizeParent=1;resizeParentMax=0;resizeLast=0;collapsible=1;marginBottom=0;whiteSpace=wrap;html=1;" parent="1" vertex="1">
          <mxGeometry x="388" y="-99" width="160" height="151" as="geometry" />
        </mxCell>
        <mxCell id="ag3H703gYOMIYS7V91si-23" value="idPagamento:&lt;div&gt;idCliente:&lt;/div&gt;&lt;div&gt;idPedido&lt;br&gt;&lt;div&gt;&lt;br&gt;&lt;/div&gt;&lt;/div&gt;" style="text;strokeColor=none;fillColor=none;align=left;verticalAlign=top;spacingLeft=4;spacingRight=4;overflow=hidden;rotatable=0;points=[[0,0.5],[1,0.5]];portConstraint=eastwest;whiteSpace=wrap;html=1;" parent="ag3H703gYOMIYS7V91si-22" vertex="1">
          <mxGeometry y="26" width="160" height="59" as="geometry" />
        </mxCell>
        <mxCell id="ag3H703gYOMIYS7V91si-24" value="" style="line;strokeWidth=1;fillColor=none;align=left;verticalAlign=middle;spacingTop=-1;spacingLeft=3;spacingRight=3;rotatable=0;labelPosition=right;points=[];portConstraint=eastwest;strokeColor=inherit;" parent="ag3H703gYOMIYS7V91si-22" vertex="1">
          <mxGeometry y="85" width="160" height="8" as="geometry" />
        </mxCell>
        <mxCell id="ag3H703gYOMIYS7V91si-25" value="CriarPagamento():&lt;div&gt;Alterar&lt;span style=&quot;background-color: transparent; color: light-dark(rgb(0, 0, 0), rgb(255, 255, 255));&quot;&gt;Pagamento&lt;/span&gt;&lt;span style=&quot;background-color: transparent; color: light-dark(rgb(0, 0, 0), rgb(255, 255, 255));&quot;&gt;():&lt;/span&gt;&lt;/div&gt;&lt;div&gt;Excluir&lt;span style=&quot;background-color: transparent; color: light-dark(rgb(0, 0, 0), rgb(255, 255, 255));&quot;&gt;Pagamento&lt;/span&gt;&lt;span style=&quot;background-color: transparent; color: light-dark(rgb(0, 0, 0), rgb(255, 255, 255));&quot;&gt;():&lt;/span&gt;&lt;/div&gt;" style="text;strokeColor=none;fillColor=none;align=left;verticalAlign=top;spacingLeft=4;spacingRight=4;overflow=hidden;rotatable=0;points=[[0,0.5],[1,0.5]];portConstraint=eastwest;whiteSpace=wrap;html=1;" parent="ag3H703gYOMIYS7V91si-22" vertex="1">
          <mxGeometry y="93" width="160" height="58" as="geometry" />
        </mxCell>
        <mxCell id="ag3H703gYOMIYS7V91si-26" value="Cadastro" style="swimlane;fontStyle=1;align=center;verticalAlign=top;childLayout=stackLayout;horizontal=1;startSize=26;horizontalStack=0;resizeParent=1;resizeParentMax=0;resizeLast=0;collapsible=1;marginBottom=0;whiteSpace=wrap;html=1;" parent="1" vertex="1">
          <mxGeometry x="-72" y="-159" width="209" height="262" as="geometry" />
        </mxCell>
        <mxCell id="ag3H703gYOMIYS7V91si-27" value="idCadastro:&lt;div&gt;idCliente:&lt;/div&gt;&lt;div&gt;Nome: String&lt;/div&gt;&lt;div&gt;Data: Date&lt;/div&gt;&lt;div&gt;cpf:int&lt;/div&gt;&lt;div&gt;E-mail:&amp;nbsp;&lt;span style=&quot;background-color: transparent; color: light-dark(rgb(0, 0, 0), rgb(255, 255, 255));&quot;&gt;String&lt;/span&gt;&lt;/div&gt;&lt;div&gt;endereÃ§o: String&lt;/div&gt;&lt;div&gt;telefone: int&lt;/div&gt;&lt;div&gt;whatApp:&amp;nbsp;&lt;span style=&quot;background-color: transparent; color: light-dark(rgb(0, 0, 0), rgb(255, 255, 255));&quot;&gt;int&lt;/span&gt;&lt;/div&gt;&lt;div&gt;instagram:&amp;nbsp;&lt;span style=&quot;background-color: transparent; color: light-dark(rgb(0, 0, 0), rgb(255, 255, 255));&quot;&gt;String&lt;/span&gt;&lt;/div&gt;&lt;div&gt;facebook:&amp;nbsp;&lt;span style=&quot;background-color: transparent; color: light-dark(rgb(0, 0, 0), rgb(255, 255, 255));&quot;&gt;String&lt;/span&gt;&lt;/div&gt;&lt;div&gt;&lt;br&gt;&lt;/div&gt;&lt;div&gt;&lt;br&gt;&lt;/div&gt;&lt;div&gt;&lt;br&gt;&lt;/div&gt;&lt;div&gt;&lt;br&gt;&lt;div&gt;&lt;br&gt;&lt;/div&gt;&lt;/div&gt;" style="text;strokeColor=none;fillColor=none;align=left;verticalAlign=top;spacingLeft=4;spacingRight=4;overflow=hidden;rotatable=0;points=[[0,0.5],[1,0.5]];portConstraint=eastwest;whiteSpace=wrap;html=1;" parent="ag3H703gYOMIYS7V91si-26" vertex="1">
          <mxGeometry y="26" width="209" height="172" as="geometry" />
        </mxCell>
        <mxCell id="ag3H703gYOMIYS7V91si-28" value="" style="line;strokeWidth=1;fillColor=none;align=left;verticalAlign=middle;spacingTop=-1;spacingLeft=3;spacingRight=3;rotatable=0;labelPosition=right;points=[];portConstraint=eastwest;strokeColor=inherit;" parent="ag3H703gYOMIYS7V91si-26" vertex="1">
          <mxGeometry y="198" width="209" height="8" as="geometry" />
        </mxCell>
        <mxCell id="ag3H703gYOMIYS7V91si-29" value="CriarCadastro():&lt;div&gt;Alterar&lt;span style=&quot;background-color: transparent; color: light-dark(rgb(0, 0, 0), rgb(255, 255, 255));&quot;&gt;Cadastro&lt;/span&gt;&lt;span style=&quot;background-color: transparent; color: light-dark(rgb(0, 0, 0), rgb(255, 255, 255));&quot;&gt;():&lt;/span&gt;&lt;/div&gt;&lt;div&gt;Excluir&lt;span style=&quot;background-color: transparent; color: light-dark(rgb(0, 0, 0), rgb(255, 255, 255));&quot;&gt;Cadastro&lt;/span&gt;&lt;span style=&quot;background-color: transparent; color: light-dark(rgb(0, 0, 0), rgb(255, 255, 255));&quot;&gt;():&lt;/span&gt;&lt;/div&gt;" style="text;strokeColor=none;fillColor=none;align=left;verticalAlign=top;spacingLeft=4;spacingRight=4;overflow=hidden;rotatable=0;points=[[0,0.5],[1,0.5]];portConstraint=eastwest;whiteSpace=wrap;html=1;" parent="ag3H703gYOMIYS7V91si-26" vertex="1">
          <mxGeometry y="206" width="209" height="56" as="geometry" />
        </mxCell>
      </root>
    </mxGraphModel>
  </diagram>
</mxfile>
